<?xml version="1.0" encoding="iso-8859-1"?>
<!-- Generator: Adobe Illustrator 18.1.1, SVG Export Plug-In . SVG Version: 6.00 Build 0)  -->
<svg version="1.1" id="Capa_1" xmlns="http://www.w3.org/2000/svg" xmlns:xlink="http://www.w3.org/1999/xlink" x="0px" y="0px"
	 viewBox="0 0 416.189 416.189" style="enable-background:new 0 0 416.189 416.189;" xml:space="preserve">
<g>
	<g>
		<path style="fill:#010002;" d="M317.754,306.545L317.754,306.545L317.754,306.545L317.754,306.545
			c-39.823,0-75.487-23.742-90.869-60.486c-0.925-2.22-3.085-3.652-5.495-3.652h-29.703c-1.587,0-3.115,0.638-4.225,1.754
			l-18.282,18.33l-18.277-18.33c-1.116-1.116-2.655-1.754-4.225-1.754h-10.185c-1.587,0-3.115,0.638-4.225,1.754l-18.277,18.324
			l-0.346-0.346l-0.006,0.006l-4.553-3.896l-14.058-14.088c-1.128-1.128-2.619-1.754-4.207-1.754H80.618
			c-1.581,0-3.109,0.638-4.225,1.754l-18.271,18.324l-18.288-18.324c-1.128-1.128-2.619-1.754-4.207-1.754H34.31
			c-18.915,0-34.304-15.389-34.31-34.304c0.012-18.921,15.406-34.315,34.315-34.321l187.079,0.006c2.405,0,4.571-1.444,5.507-3.676
			c15.359-36.726,51.017-60.468,90.834-60.468c54.287,0,98.453,44.167,98.453,98.453c0.006,26.254-10.245,50.963-28.856,69.58
			C368.723,296.294,344.008,306.545,317.754,306.545z M191.662,230.473h29.721c7.238,0,13.718,4.314,16.51,10.985
			c13.515,32.287,44.859,53.153,79.849,53.153h0.012c23.068,0,44.781-9.01,61.137-25.371c16.361-16.361,25.365-38.075,25.365-61.143
			c0-47.705-38.809-86.52-86.514-86.52c-34.99,0-66.328,20.86-79.831,53.147c-2.816,6.683-9.296,10.997-16.516,10.997
			l-187.079-0.006c-12.334,0.006-22.376,10.048-22.382,22.388c0,12.334,10.042,22.37,22.376,22.37h1.301
			c4.797,0,9.29,1.868,12.674,5.263l9.833,9.851l9.833-9.857c3.341-3.347,7.954-5.257,12.65-5.257h10.203
			c4.797,0,9.29,1.868,12.674,5.263l10.191,10.168l10.144-10.168c3.33-3.347,7.942-5.263,12.656-5.263h10.203
			c4.72,0,9.338,1.915,12.674,5.257l9.827,9.863l9.827-9.857C182.336,232.389,186.948,230.473,191.662,230.473z M357.893,237.526
			c-16.224-0.006-29.423-13.205-29.429-29.417c0-16.23,13.199-29.429,29.423-29.429c16.23,0,29.429,13.199,29.429,29.423
			S374.117,237.526,357.893,237.526z M357.887,190.609c-9.642,0-17.489,7.846-17.489,17.495c0.006,9.637,7.852,17.483,17.495,17.489
			c9.642,0,17.489-7.846,17.489-17.495C375.382,198.449,367.535,190.609,357.887,190.609z"/>
	</g>
</g>
<g>
</g>
<g>
</g>
<g>
</g>
<g>
</g>
<g>
</g>
<g>
</g>
<g>
</g>
<g>
</g>
<g>
</g>
<g>
</g>
<g>
</g>
<g>
</g>
<g>
</g>
<g>
</g>
<g>
</g>
</svg>
